<mxfile host="app.diagrams.net" modified="2023-07-28T06:34:29.850Z" agent="Mozilla/5.0 (Macintosh; Intel Mac OS X 10_15_7) AppleWebKit/537.36 (KHTML, like Gecko) Chrome/115.0.0.0 Safari/537.36" etag="KnnMPV-bUVOcppk0YInw" version="21.6.5" type="device">
  <diagram id="vc8r_1XYBC7EFZj3Y8ex" name="Page-1">
    <mxGraphModel dx="2563" dy="1250" grid="1" gridSize="10" guides="1" tooltips="1" connect="1" arrows="1" fold="1" page="1" pageScale="1" pageWidth="1019" pageHeight="1320" math="0" shadow="0">
      <root>
        <mxCell id="0" />
        <mxCell id="1" parent="0" />
        <mxCell id="s3TwL0lOHZJc88dg1orS-1" value="" style="group" parent="1" vertex="1" connectable="0">
          <mxGeometry x="40" y="50" width="820" height="530" as="geometry" />
        </mxCell>
        <mxCell id="s3TwL0lOHZJc88dg1orS-2" value="" style="rounded=0;whiteSpace=wrap;html=1;movable=0;resizable=0;rotatable=0;deletable=0;editable=0;locked=1;connectable=0;" parent="s3TwL0lOHZJc88dg1orS-1" vertex="1">
          <mxGeometry x="70" y="50" width="650" height="420" as="geometry" />
        </mxCell>
        <mxCell id="s3TwL0lOHZJc88dg1orS-10" value="&lt;div&gt;&amp;lt;&amp;lt;sistem&amp;gt;&amp;gt;&lt;/div&gt;&lt;div&gt;&lt;b&gt;Kubernetes&lt;/b&gt;&lt;/div&gt;" style="html=1;align=left;spacingLeft=21;verticalAlign=top;" parent="s3TwL0lOHZJc88dg1orS-1" vertex="1">
          <mxGeometry x="70" width="650" height="50" as="geometry" />
        </mxCell>
        <mxCell id="s3TwL0lOHZJc88dg1orS-11" value="" style="shape=module;jettyWidth=10;jettyHeight=4;" parent="s3TwL0lOHZJc88dg1orS-10" vertex="1">
          <mxGeometry x="1" width="16" height="20" relative="1" as="geometry">
            <mxPoint x="-25" y="9" as="offset" />
          </mxGeometry>
        </mxCell>
        <mxCell id="Htuijc_nR1vdPdiy9510-7" value="" style="group;movable=0;resizable=0;rotatable=0;deletable=0;editable=0;locked=1;connectable=0;" vertex="1" connectable="0" parent="s3TwL0lOHZJc88dg1orS-1">
          <mxGeometry x="360" y="70" width="310" height="260" as="geometry" />
        </mxCell>
        <mxCell id="Htuijc_nR1vdPdiy9510-1" value="" style="rounded=0;whiteSpace=wrap;html=1;movable=1;resizable=1;rotatable=1;deletable=1;editable=1;locked=0;connectable=1;" vertex="1" parent="Htuijc_nR1vdPdiy9510-7">
          <mxGeometry y="50" width="310" height="210" as="geometry" />
        </mxCell>
        <mxCell id="Htuijc_nR1vdPdiy9510-2" value="&lt;div&gt;&amp;lt;&amp;lt;sistem&amp;gt;&amp;gt;&lt;/div&gt;&lt;div&gt;&lt;b&gt;Elastic Search&lt;/b&gt;&lt;/div&gt;" style="html=1;align=left;spacingLeft=21;verticalAlign=top;" vertex="1" parent="Htuijc_nR1vdPdiy9510-7">
          <mxGeometry width="310" height="50" as="geometry" />
        </mxCell>
        <mxCell id="Htuijc_nR1vdPdiy9510-3" value="" style="shape=module;jettyWidth=10;jettyHeight=4;" vertex="1" parent="Htuijc_nR1vdPdiy9510-2">
          <mxGeometry x="1" width="16" height="20" relative="1" as="geometry">
            <mxPoint x="-25" y="9" as="offset" />
          </mxGeometry>
        </mxCell>
        <mxCell id="Htuijc_nR1vdPdiy9510-28" value="&lt;p style=&quot;margin:0px;margin-top:6px;text-align:center;&quot;&gt;&lt;b&gt;&amp;lt;&amp;lt;component&amp;gt;&amp;gt;&lt;/b&gt;&lt;/p&gt;&lt;hr&gt;&lt;p style=&quot;text-align: center; margin: 0px 0px 0px 8px;&quot;&gt;Komponen ElasticSearch&lt;/p&gt;&lt;p style=&quot;text-align: center; margin: 0px 0px 0px 8px;&quot;&gt;Lainnya&lt;/p&gt;" style="align=left;overflow=fill;html=1;dropTarget=0;whiteSpace=wrap;" vertex="1" parent="Htuijc_nR1vdPdiy9510-7">
          <mxGeometry x="10" y="60" width="180" height="90" as="geometry" />
        </mxCell>
        <mxCell id="Htuijc_nR1vdPdiy9510-29" value="" style="shape=component;jettyWidth=8;jettyHeight=4;" vertex="1" parent="Htuijc_nR1vdPdiy9510-28">
          <mxGeometry x="1" width="20" height="20" relative="1" as="geometry">
            <mxPoint x="-24" y="4" as="offset" />
          </mxGeometry>
        </mxCell>
        <mxCell id="Htuijc_nR1vdPdiy9510-30" value="&lt;p style=&quot;margin:0px;margin-top:6px;text-align:center;&quot;&gt;&lt;b&gt;&amp;lt;&amp;lt;component&amp;gt;&amp;gt;&lt;/b&gt;&lt;/p&gt;&lt;hr&gt;&lt;p style=&quot;text-align: center; margin: 0px 0px 0px 8px;&quot;&gt;Node Stats&lt;/p&gt;" style="align=left;overflow=fill;html=1;dropTarget=0;whiteSpace=wrap;" vertex="1" parent="Htuijc_nR1vdPdiy9510-7">
          <mxGeometry x="10" y="160" width="180" height="90" as="geometry" />
        </mxCell>
        <mxCell id="Htuijc_nR1vdPdiy9510-31" value="" style="shape=component;jettyWidth=8;jettyHeight=4;" vertex="1" parent="Htuijc_nR1vdPdiy9510-30">
          <mxGeometry x="1" width="20" height="20" relative="1" as="geometry">
            <mxPoint x="-24" y="4" as="offset" />
          </mxGeometry>
        </mxCell>
        <mxCell id="Htuijc_nR1vdPdiy9510-9" value="&lt;p style=&quot;margin:0px;margin-top:6px;text-align:center;&quot;&gt;&lt;b&gt;&amp;lt;&amp;lt;component&amp;gt;&amp;gt;&lt;/b&gt;&lt;/p&gt;&lt;hr&gt;&lt;p style=&quot;text-align: center; margin: 0px 0px 0px 8px;&quot;&gt;Komponen Kubernetes&lt;/p&gt;&lt;p style=&quot;text-align: center; margin: 0px 0px 0px 8px;&quot;&gt;Lainnya&lt;/p&gt;" style="align=left;overflow=fill;html=1;dropTarget=0;whiteSpace=wrap;" vertex="1" parent="s3TwL0lOHZJc88dg1orS-1">
          <mxGeometry x="100" y="100" width="180" height="90" as="geometry" />
        </mxCell>
        <mxCell id="Htuijc_nR1vdPdiy9510-10" value="" style="shape=component;jettyWidth=8;jettyHeight=4;" vertex="1" parent="Htuijc_nR1vdPdiy9510-9">
          <mxGeometry x="1" width="20" height="20" relative="1" as="geometry">
            <mxPoint x="-24" y="4" as="offset" />
          </mxGeometry>
        </mxCell>
        <mxCell id="Htuijc_nR1vdPdiy9510-11" value="&lt;p style=&quot;margin:0px;margin-top:6px;text-align:center;&quot;&gt;&lt;b&gt;&amp;lt;&amp;lt;component&amp;gt;&amp;gt;&lt;/b&gt;&lt;/p&gt;&lt;hr&gt;&lt;p style=&quot;text-align: center; margin: 0px 0px 0px 8px;&quot;&gt;kube-controller-manager&lt;/p&gt;" style="align=left;overflow=fill;html=1;dropTarget=0;whiteSpace=wrap;" vertex="1" parent="s3TwL0lOHZJc88dg1orS-1">
          <mxGeometry x="100" y="340" width="180" height="90" as="geometry" />
        </mxCell>
        <mxCell id="Htuijc_nR1vdPdiy9510-12" value="" style="shape=component;jettyWidth=8;jettyHeight=4;" vertex="1" parent="Htuijc_nR1vdPdiy9510-11">
          <mxGeometry x="1" width="20" height="20" relative="1" as="geometry">
            <mxPoint x="-24" y="4" as="offset" />
          </mxGeometry>
        </mxCell>
        <mxCell id="Htuijc_nR1vdPdiy9510-13" value="" style="rounded=0;orthogonalLoop=1;jettySize=auto;html=1;endArrow=halfCircle;endFill=0;endSize=6;strokeWidth=1;sketch=0;exitX=0;exitY=0.5;exitDx=0;exitDy=0;" edge="1" target="Htuijc_nR1vdPdiy9510-15" parent="s3TwL0lOHZJc88dg1orS-1" source="Htuijc_nR1vdPdiy9510-16">
          <mxGeometry relative="1" as="geometry">
            <mxPoint x="370" y="385" as="sourcePoint" />
          </mxGeometry>
        </mxCell>
        <mxCell id="Htuijc_nR1vdPdiy9510-14" value="" style="rounded=0;orthogonalLoop=1;jettySize=auto;html=1;endArrow=oval;endFill=0;sketch=0;sourcePerimeterSpacing=0;targetPerimeterSpacing=0;endSize=10;exitX=1;exitY=0.5;exitDx=0;exitDy=0;" edge="1" target="Htuijc_nR1vdPdiy9510-15" parent="s3TwL0lOHZJc88dg1orS-1" source="Htuijc_nR1vdPdiy9510-11">
          <mxGeometry relative="1" as="geometry">
            <mxPoint x="330" y="385" as="sourcePoint" />
          </mxGeometry>
        </mxCell>
        <mxCell id="Htuijc_nR1vdPdiy9510-15" value="" style="ellipse;whiteSpace=wrap;html=1;align=center;aspect=fixed;fillColor=none;strokeColor=none;resizable=0;perimeter=centerPerimeter;rotatable=0;allowArrows=0;points=[];outlineConnect=1;" vertex="1" parent="s3TwL0lOHZJc88dg1orS-1">
          <mxGeometry x="345" y="380" width="10" height="10" as="geometry" />
        </mxCell>
        <mxCell id="Htuijc_nR1vdPdiy9510-16" value="" style="rounded=0;whiteSpace=wrap;html=1;" vertex="1" parent="s3TwL0lOHZJc88dg1orS-1">
          <mxGeometry x="700" y="360" width="50" height="50" as="geometry" />
        </mxCell>
        <mxCell id="Htuijc_nR1vdPdiy9510-18" value="" style="rounded=0;orthogonalLoop=1;jettySize=auto;html=1;endArrow=halfCircle;endFill=0;endSize=6;strokeWidth=1;sketch=0;exitX=0;exitY=0.5;exitDx=0;exitDy=0;" edge="1" parent="s3TwL0lOHZJc88dg1orS-1" source="Htuijc_nR1vdPdiy9510-16">
          <mxGeometry relative="1" as="geometry">
            <mxPoint x="320" y="155" as="sourcePoint" />
            <mxPoint x="250" y="210" as="targetPoint" />
            <Array as="points">
              <mxPoint x="660" y="360" />
              <mxPoint x="300" y="360" />
              <mxPoint x="300" y="210" />
            </Array>
          </mxGeometry>
        </mxCell>
        <mxCell id="Htuijc_nR1vdPdiy9510-19" value="" style="rounded=0;orthogonalLoop=1;jettySize=auto;html=1;endArrow=oval;endFill=0;sketch=0;sourcePerimeterSpacing=0;targetPerimeterSpacing=0;endSize=10;exitX=0.75;exitY=1;exitDx=0;exitDy=0;" edge="1" parent="s3TwL0lOHZJc88dg1orS-1" source="Htuijc_nR1vdPdiy9510-9">
          <mxGeometry relative="1" as="geometry">
            <mxPoint x="280" y="155" as="sourcePoint" />
            <mxPoint x="250" y="210" as="targetPoint" />
            <Array as="points">
              <mxPoint x="235" y="210" />
            </Array>
          </mxGeometry>
        </mxCell>
        <mxCell id="Htuijc_nR1vdPdiy9510-20" value="" style="ellipse;whiteSpace=wrap;html=1;align=center;aspect=fixed;fillColor=none;strokeColor=none;resizable=0;perimeter=centerPerimeter;rotatable=0;allowArrows=0;points=[];outlineConnect=1;" vertex="1" parent="s3TwL0lOHZJc88dg1orS-1">
          <mxGeometry x="295" y="150" width="10" height="10" as="geometry" />
        </mxCell>
        <mxCell id="Htuijc_nR1vdPdiy9510-27" value="" style="rounded=0;whiteSpace=wrap;html=1;" vertex="1" parent="s3TwL0lOHZJc88dg1orS-1">
          <mxGeometry x="650" y="290" width="30" height="30" as="geometry" />
        </mxCell>
        <mxCell id="Htuijc_nR1vdPdiy9510-4" value="" style="rounded=0;whiteSpace=wrap;html=1;movable=1;resizable=1;rotatable=1;deletable=1;editable=1;locked=0;connectable=1;" vertex="1" parent="1">
          <mxGeometry x="920" y="100" width="560" height="420" as="geometry" />
        </mxCell>
        <mxCell id="Htuijc_nR1vdPdiy9510-5" value="&lt;div&gt;&amp;lt;&amp;lt;sistem&amp;gt;&amp;gt;&lt;/div&gt;&lt;div&gt;&lt;b&gt;Autoscaler dengan Kontrol Fleksibel&lt;/b&gt;&lt;/div&gt;" style="html=1;align=left;spacingLeft=21;verticalAlign=top;" vertex="1" parent="1">
          <mxGeometry x="920" y="50" width="560" height="50" as="geometry" />
        </mxCell>
        <mxCell id="Htuijc_nR1vdPdiy9510-6" value="" style="shape=module;jettyWidth=10;jettyHeight=4;" vertex="1" parent="Htuijc_nR1vdPdiy9510-5">
          <mxGeometry x="1" width="16" height="20" relative="1" as="geometry">
            <mxPoint x="-25" y="9" as="offset" />
          </mxGeometry>
        </mxCell>
        <mxCell id="Htuijc_nR1vdPdiy9510-24" value="" style="rounded=0;orthogonalLoop=1;jettySize=auto;html=1;endArrow=halfCircle;endFill=0;endSize=6;strokeWidth=1;sketch=0;exitX=0;exitY=0.5;exitDx=0;exitDy=0;" edge="1" parent="1" source="Htuijc_nR1vdPdiy9510-16">
          <mxGeometry relative="1" as="geometry">
            <mxPoint x="800" y="435" as="sourcePoint" />
            <mxPoint x="730" y="380" as="targetPoint" />
            <Array as="points">
              <mxPoint x="730" y="410" />
            </Array>
          </mxGeometry>
        </mxCell>
        <mxCell id="Htuijc_nR1vdPdiy9510-25" value="" style="rounded=0;orthogonalLoop=1;jettySize=auto;html=1;endArrow=oval;endFill=0;sketch=0;sourcePerimeterSpacing=0;targetPerimeterSpacing=0;endSize=10;exitX=1;exitY=0.5;exitDx=0;exitDy=0;" edge="1" parent="1" source="Htuijc_nR1vdPdiy9510-27">
          <mxGeometry relative="1" as="geometry">
            <mxPoint x="760" y="435" as="sourcePoint" />
            <mxPoint x="730" y="380" as="targetPoint" />
            <Array as="points">
              <mxPoint x="730" y="355" />
            </Array>
          </mxGeometry>
        </mxCell>
        <mxCell id="Htuijc_nR1vdPdiy9510-26" value="" style="ellipse;whiteSpace=wrap;html=1;align=center;aspect=fixed;fillColor=none;strokeColor=none;resizable=0;perimeter=centerPerimeter;rotatable=0;allowArrows=0;points=[];outlineConnect=1;" vertex="1" parent="1">
          <mxGeometry x="775" y="430" width="10" height="10" as="geometry" />
        </mxCell>
        <mxCell id="Htuijc_nR1vdPdiy9510-32" value="" style="rounded=0;orthogonalLoop=1;jettySize=auto;html=1;endArrow=halfCircle;endFill=0;endSize=6;strokeWidth=1;sketch=0;exitX=0;exitY=0.75;exitDx=0;exitDy=0;" edge="1" parent="1" source="Htuijc_nR1vdPdiy9510-27">
          <mxGeometry relative="1" as="geometry">
            <mxPoint x="570" y="335" as="sourcePoint" />
            <mxPoint x="620" y="350" as="targetPoint" />
            <Array as="points">
              <mxPoint x="670" y="350" />
            </Array>
          </mxGeometry>
        </mxCell>
        <mxCell id="Htuijc_nR1vdPdiy9510-33" value="" style="rounded=0;orthogonalLoop=1;jettySize=auto;html=1;endArrow=oval;endFill=0;sketch=0;sourcePerimeterSpacing=0;targetPerimeterSpacing=0;endSize=10;exitX=1.005;exitY=0.777;exitDx=0;exitDy=0;exitPerimeter=0;" edge="1" parent="1" source="Htuijc_nR1vdPdiy9510-30">
          <mxGeometry relative="1" as="geometry">
            <mxPoint x="530" y="335" as="sourcePoint" />
            <mxPoint x="620" y="350" as="targetPoint" />
            <Array as="points">
              <mxPoint x="600" y="350" />
            </Array>
          </mxGeometry>
        </mxCell>
        <mxCell id="Htuijc_nR1vdPdiy9510-34" value="" style="ellipse;whiteSpace=wrap;html=1;align=center;aspect=fixed;fillColor=none;strokeColor=none;resizable=0;perimeter=centerPerimeter;rotatable=0;allowArrows=0;points=[];outlineConnect=1;" vertex="1" parent="1">
          <mxGeometry x="545" y="330" width="10" height="10" as="geometry" />
        </mxCell>
        <mxCell id="Htuijc_nR1vdPdiy9510-35" value="" style="rounded=0;orthogonalLoop=1;jettySize=auto;html=1;endArrow=halfCircle;endFill=0;endSize=6;strokeWidth=1;sketch=0;exitX=0;exitY=0.5;exitDx=0;exitDy=0;" edge="1" target="Htuijc_nR1vdPdiy9510-37" parent="1" source="Htuijc_nR1vdPdiy9510-27">
          <mxGeometry relative="1" as="geometry">
            <mxPoint x="530" y="295" as="sourcePoint" />
            <Array as="points">
              <mxPoint x="660" y="340" />
              <mxPoint x="650" y="225" />
            </Array>
          </mxGeometry>
        </mxCell>
        <mxCell id="Htuijc_nR1vdPdiy9510-36" value="" style="rounded=0;orthogonalLoop=1;jettySize=auto;html=1;endArrow=oval;endFill=0;sketch=0;sourcePerimeterSpacing=0;targetPerimeterSpacing=0;endSize=10;exitX=1;exitY=0.5;exitDx=0;exitDy=0;" edge="1" target="Htuijc_nR1vdPdiy9510-37" parent="1" source="Htuijc_nR1vdPdiy9510-28">
          <mxGeometry relative="1" as="geometry">
            <mxPoint x="490" y="295" as="sourcePoint" />
          </mxGeometry>
        </mxCell>
        <mxCell id="Htuijc_nR1vdPdiy9510-37" value="" style="ellipse;whiteSpace=wrap;html=1;align=center;aspect=fixed;fillColor=none;strokeColor=none;resizable=0;perimeter=centerPerimeter;rotatable=0;allowArrows=0;points=[];outlineConnect=1;" vertex="1" parent="1">
          <mxGeometry x="620" y="220" width="10" height="10" as="geometry" />
        </mxCell>
        <mxCell id="Htuijc_nR1vdPdiy9510-53" style="edgeStyle=orthogonalEdgeStyle;rounded=0;orthogonalLoop=1;jettySize=auto;html=1;exitX=0;exitY=0.5;exitDx=0;exitDy=0;entryX=1;entryY=0.5;entryDx=0;entryDy=0;dashed=1;" edge="1" parent="1" source="Htuijc_nR1vdPdiy9510-41" target="Htuijc_nR1vdPdiy9510-47">
          <mxGeometry relative="1" as="geometry" />
        </mxCell>
        <mxCell id="Htuijc_nR1vdPdiy9510-54" style="edgeStyle=orthogonalEdgeStyle;rounded=0;orthogonalLoop=1;jettySize=auto;html=1;exitX=0.5;exitY=0;exitDx=0;exitDy=0;entryX=0.5;entryY=1;entryDx=0;entryDy=0;dashed=1;" edge="1" parent="1" source="Htuijc_nR1vdPdiy9510-41" target="Htuijc_nR1vdPdiy9510-43">
          <mxGeometry relative="1" as="geometry" />
        </mxCell>
        <mxCell id="Htuijc_nR1vdPdiy9510-55" style="edgeStyle=orthogonalEdgeStyle;rounded=0;orthogonalLoop=1;jettySize=auto;html=1;exitX=0.25;exitY=0;exitDx=0;exitDy=0;entryX=0.948;entryY=0.979;entryDx=0;entryDy=0;entryPerimeter=0;dashed=1;" edge="1" parent="1" source="Htuijc_nR1vdPdiy9510-41" target="Htuijc_nR1vdPdiy9510-45">
          <mxGeometry relative="1" as="geometry" />
        </mxCell>
        <mxCell id="Htuijc_nR1vdPdiy9510-56" style="edgeStyle=orthogonalEdgeStyle;rounded=0;orthogonalLoop=1;jettySize=auto;html=1;exitX=0;exitY=0.25;exitDx=0;exitDy=0;entryX=1;entryY=0.5;entryDx=0;entryDy=0;dashed=1;" edge="1" parent="1" source="Htuijc_nR1vdPdiy9510-41" target="Htuijc_nR1vdPdiy9510-49">
          <mxGeometry relative="1" as="geometry" />
        </mxCell>
        <mxCell id="Htuijc_nR1vdPdiy9510-41" value="&lt;p style=&quot;margin:0px;margin-top:6px;text-align:center;&quot;&gt;&lt;b&gt;&amp;lt;&amp;lt;component&amp;gt;&amp;gt;&lt;/b&gt;&lt;/p&gt;&lt;hr&gt;&lt;p style=&quot;text-align: center; margin: 0px 0px 0px 8px;&quot;&gt;Flexible Control&lt;/p&gt;" style="align=left;overflow=fill;html=1;dropTarget=0;whiteSpace=wrap;" vertex="1" parent="1">
          <mxGeometry x="1240" y="360" width="180" height="90" as="geometry" />
        </mxCell>
        <mxCell id="Htuijc_nR1vdPdiy9510-42" value="" style="shape=component;jettyWidth=8;jettyHeight=4;" vertex="1" parent="Htuijc_nR1vdPdiy9510-41">
          <mxGeometry x="1" width="20" height="20" relative="1" as="geometry">
            <mxPoint x="-24" y="4" as="offset" />
          </mxGeometry>
        </mxCell>
        <mxCell id="Htuijc_nR1vdPdiy9510-43" value="&lt;p style=&quot;margin:0px;margin-top:6px;text-align:center;&quot;&gt;&lt;b&gt;&amp;lt;&amp;lt;component&amp;gt;&amp;gt;&lt;/b&gt;&lt;/p&gt;&lt;hr&gt;&lt;p style=&quot;text-align: center; margin: 0px 0px 0px 8px;&quot;&gt;Rule Manager&lt;/p&gt;" style="align=left;overflow=fill;html=1;dropTarget=0;whiteSpace=wrap;" vertex="1" parent="1">
          <mxGeometry x="1230" y="140" width="180" height="90" as="geometry" />
        </mxCell>
        <mxCell id="Htuijc_nR1vdPdiy9510-44" value="" style="shape=component;jettyWidth=8;jettyHeight=4;" vertex="1" parent="Htuijc_nR1vdPdiy9510-43">
          <mxGeometry x="1" width="20" height="20" relative="1" as="geometry">
            <mxPoint x="-24" y="4" as="offset" />
          </mxGeometry>
        </mxCell>
        <mxCell id="Htuijc_nR1vdPdiy9510-45" value="&lt;p style=&quot;margin:0px;margin-top:6px;text-align:center;&quot;&gt;&lt;b&gt;&amp;lt;&amp;lt;component&amp;gt;&amp;gt;&lt;/b&gt;&lt;/p&gt;&lt;hr&gt;&lt;p style=&quot;text-align: center; margin: 0px 0px 0px 8px;&quot;&gt;Predictor&lt;/p&gt;" style="align=left;overflow=fill;html=1;dropTarget=0;whiteSpace=wrap;" vertex="1" parent="1">
          <mxGeometry x="980" y="130" width="180" height="90" as="geometry" />
        </mxCell>
        <mxCell id="Htuijc_nR1vdPdiy9510-46" value="" style="shape=component;jettyWidth=8;jettyHeight=4;" vertex="1" parent="Htuijc_nR1vdPdiy9510-45">
          <mxGeometry x="1" width="20" height="20" relative="1" as="geometry">
            <mxPoint x="-24" y="4" as="offset" />
          </mxGeometry>
        </mxCell>
        <mxCell id="Htuijc_nR1vdPdiy9510-52" style="edgeStyle=orthogonalEdgeStyle;rounded=0;orthogonalLoop=1;jettySize=auto;html=1;exitX=0;exitY=0.5;exitDx=0;exitDy=0;entryX=1;entryY=0.5;entryDx=0;entryDy=0;dashed=1;" edge="1" parent="1" source="Htuijc_nR1vdPdiy9510-47" target="Htuijc_nR1vdPdiy9510-16">
          <mxGeometry relative="1" as="geometry" />
        </mxCell>
        <mxCell id="Htuijc_nR1vdPdiy9510-47" value="&lt;p style=&quot;margin:0px;margin-top:6px;text-align:center;&quot;&gt;&lt;b&gt;&amp;lt;&amp;lt;component&amp;gt;&amp;gt;&lt;/b&gt;&lt;/p&gt;&lt;hr&gt;&lt;p style=&quot;text-align: center; margin: 0px 0px 0px 8px;&quot;&gt;Resource Controller&lt;/p&gt;" style="align=left;overflow=fill;html=1;dropTarget=0;whiteSpace=wrap;" vertex="1" parent="1">
          <mxGeometry x="950" y="390" width="180" height="90" as="geometry" />
        </mxCell>
        <mxCell id="Htuijc_nR1vdPdiy9510-48" value="" style="shape=component;jettyWidth=8;jettyHeight=4;" vertex="1" parent="Htuijc_nR1vdPdiy9510-47">
          <mxGeometry x="1" width="20" height="20" relative="1" as="geometry">
            <mxPoint x="-24" y="4" as="offset" />
          </mxGeometry>
        </mxCell>
        <mxCell id="Htuijc_nR1vdPdiy9510-51" style="edgeStyle=orthogonalEdgeStyle;rounded=0;orthogonalLoop=1;jettySize=auto;html=1;exitX=0;exitY=0.5;exitDx=0;exitDy=0;entryX=0.75;entryY=0;entryDx=0;entryDy=0;dashed=1;" edge="1" parent="1" source="Htuijc_nR1vdPdiy9510-49" target="Htuijc_nR1vdPdiy9510-16">
          <mxGeometry relative="1" as="geometry" />
        </mxCell>
        <mxCell id="Htuijc_nR1vdPdiy9510-49" value="&lt;p style=&quot;margin:0px;margin-top:6px;text-align:center;&quot;&gt;&lt;b&gt;&amp;lt;&amp;lt;component&amp;gt;&amp;gt;&lt;/b&gt;&lt;/p&gt;&lt;hr&gt;&lt;p style=&quot;text-align: center; margin: 0px 0px 0px 8px;&quot;&gt;Metrics Fetcher&lt;/p&gt;" style="align=left;overflow=fill;html=1;dropTarget=0;whiteSpace=wrap;" vertex="1" parent="1">
          <mxGeometry x="950" y="265" width="180" height="90" as="geometry" />
        </mxCell>
        <mxCell id="Htuijc_nR1vdPdiy9510-50" value="" style="shape=component;jettyWidth=8;jettyHeight=4;" vertex="1" parent="Htuijc_nR1vdPdiy9510-49">
          <mxGeometry x="1" width="20" height="20" relative="1" as="geometry">
            <mxPoint x="-24" y="4" as="offset" />
          </mxGeometry>
        </mxCell>
      </root>
    </mxGraphModel>
  </diagram>
</mxfile>
